<svg width="16" height="16" viewBox="0 0 16 16" fill="none" xmlns="http://www.w3.org/2000/svg">
    <path d="M13.8666 3.33326C13.8666 3.59993 13.6666 3.8666 13.3333 3.8666L9.7333 3.8666C9.5333 4.6666 8.79997 5.19993 7.99997 5.19993C7.1333 5.19993 6.46663 4.6666 6.26663 3.8666L2.66663 3.8666C2.39997 3.8666 2.1333 3.6666 2.1333 3.33326C2.1333 2.99993 2.3333 2.79993 2.66663 2.79993L6.26663 2.79993C6.46663 1.99993 7.19997 1.4666 7.99997 1.4666C8.86663 1.4666 9.5333 1.99993 9.7333 2.79993L13.3333 2.79993C13.6 2.79993 13.8666 3.0666 13.8666 3.33326ZM7.19997 3.33326C7.19997 3.79993 7.59997 4.19993 8.06663 4.19993C8.5333 4.19993 8.9333 3.79993 8.9333 3.33326C8.9333 2.8666 8.5333 2.4666 8.06663 2.4666C7.59997 2.4666 7.19997 2.8666 7.19997 3.33326ZM13.8666 7.99993C13.8666 8.99993 13.0666 9.8666 12 9.8666C11.1333 9.8666 10.4666 9.33326 10.2666 8.53326L2.66663 8.53326C2.39997 8.53326 2.1333 8.33326 2.1333 7.99993C2.1333 7.6666 2.3333 7.4666 2.66663 7.4666L10.2666 7.4666C10.4666 6.6666 11.2 6.13326 12 6.13326C13 6.13326 13.8666 6.99993 13.8666 7.99993ZM11.2 7.99993C11.2 8.4666 11.6 8.8666 12.0666 8.8666C12.5333 8.8666 12.9333 8.4666 12.9333 7.99993C12.9333 7.53326 12.5333 7.13326 12.0666 7.13326C11.6 7.13326 11.2 7.53326 11.2 7.99993ZM13.8666 12.6666C13.8666 12.9333 13.6666 13.1999 13.3333 13.1999L5.7333 13.1999C5.5333 13.9999 4.79997 14.5333 3.99997 14.5333C2.99997 14.5333 2.1333 13.7333 2.1333 12.6666C2.1333 11.5999 2.99997 10.7999 3.99997 10.7999C4.86663 10.7999 5.5333 11.3333 5.7333 12.1333L13.3333 12.1333C13.6 12.1333 13.8666 12.3999 13.8666 12.6666ZM3.19997 12.6666C3.19997 13.1333 3.5333 13.4666 3.99997 13.4666C4.46663 13.4666 4.86663 13.1333 4.86663 12.6666C4.86663 12.1999 4.46663 11.7999 3.99997 11.7999C3.5333 11.7999 3.19997 12.1999 3.19997 12.6666Z" fill="#151515"/>
</svg>
