<svg width="14" height="14" viewBox="0 0 14 14" fill="none" xmlns="http://www.w3.org/2000/svg">
    <path d="M7 0C3.1402 0 0 3.14024 0 7.00004C0 10.8598 3.1402 14 7 14C10.8598 14 14 10.8598 14 7.00004C14 3.14024 10.8598 0 7 0ZM7 12.7273C3.84194 12.7273 1.27273 10.1581 1.27273 7.00004C1.27273 3.84202 3.84194 1.27273 7 1.27273C10.1581 1.27273 12.7273 3.84202 12.7273 7.00004C12.7273 10.1581 10.158 12.7273 7 12.7273Z" fill="#151515"/>
    <path d="M6.99919 2.96985C6.53142 2.96985 6.15088 3.35065 6.15088 3.81872C6.15088 4.28636 6.53142 4.66682 6.99919 4.66682C7.46696 4.66682 7.84751 4.28636 7.84751 3.81872C7.84751 3.35065 7.46696 2.96985 6.99919 2.96985ZM6.99928 5.93955C6.64784 5.93955 6.36292 6.22447 6.36292 6.57591V10.3941C6.36292 10.7455 6.64784 11.0305 6.99928 11.0305C7.35072 11.0305 7.63564 10.7455 7.63564 10.3941V6.57591C7.63564 6.22447 7.35072 5.93955 6.99928 5.93955Z" fill="#151515"/>
</svg>
