<svg width="24" height="24" viewBox="0 0 24 24" fill="none" xmlns="http://www.w3.org/2000/svg">
    <path fill-rule="evenodd" clip-rule="evenodd" d="M11.8011 14.9281L7.48011 19.7768C7.21495 20.0744 6.78505 20.0744 6.51989 19.7768L2.19887 14.9281C1.93371 14.6306 1.93371 14.1482 2.19887 13.8506C2.46403 13.5531 2.89394 13.5531 3.1591 13.8506L6.32102 17.3987L6.32102 4.76191C6.32102 4.34112 6.62501 4 7 4C7.37499 4 7.67898 4.34112 7.67898 4.7619L7.67898 17.3987L10.8409 13.8506C11.1061 13.5531 11.536 13.5531 11.8011 13.8506C12.0663 14.1482 12.0663 14.6306 11.8011 14.9281Z" fill="#151515"/>
    <path fill-rule="evenodd" clip-rule="evenodd" d="M21.8011 9.07189L17.4801 4.22316C17.215 3.92561 16.785 3.92561 16.5199 4.22316L12.1989 9.07189C11.9337 9.36943 11.9337 9.85184 12.1989 10.1494C12.464 10.4469 12.8939 10.4469 13.1591 10.1494L16.321 6.6013L16.321 19.2381C16.321 19.6589 16.625 20 17 20C17.375 20 17.679 19.6589 17.679 19.2381L17.679 6.6013L20.8409 10.1494C21.1061 10.4469 21.536 10.4469 21.8011 10.1494C22.0663 9.85184 22.0663 9.36943 21.8011 9.07189Z" fill="#151515"/>
</svg>
